<svg width="149" height="39" viewBox="0 0 149 39" fill="none" xmlns="http://www.w3.org/2000/svg">
<path d="M71.1733 24.6736H72.8111V35.1439H71.0563V27.491L67.8831 31.5904H67.8246L64.6708 27.491V35.1439H62.916V24.6736H64.5538L67.8587 29.0118L71.1733 24.6736Z" fill="white"/>
<path d="M74.4551 31.3271C74.4551 29.1726 75.9905 27.3154 78.4229 27.3154C80.8698 27.3154 82.4053 29.1726 82.4053 31.3271C82.4053 33.4816 80.8698 35.3241 78.4229 35.3241C75.9905 35.3241 74.4551 33.4767 74.4551 31.3271ZM78.4229 33.7741C79.7049 33.7741 80.6505 32.7992 80.6505 31.3271C80.6505 29.8355 79.7049 28.8655 78.4229 28.8655C77.1555 28.8655 76.2099 29.8404 76.2099 31.3271C76.2099 32.7992 77.1555 33.7741 78.4229 33.7741Z" fill="white"/>
<path d="M87.8154 27.3154C89.6726 27.3154 90.6621 28.5535 90.6621 30.3376V35.1438H88.9073V30.5569C88.9073 29.5089 88.4345 28.8168 87.3865 28.8168C86.28 28.8168 85.5878 29.5089 85.5878 30.7032V35.1438H83.833V27.4909H85.4562V28.5097C85.7779 27.9052 86.5627 27.3154 87.8154 27.3154Z" fill="white"/>
<path d="M95.847 35.3241C93.5316 35.3241 92.0254 33.5986 92.0254 31.3125C92.0254 29.0849 93.5608 27.3154 95.8323 27.3154C98.1038 27.3154 99.5954 29.041 99.5954 31.2832C99.5954 31.5659 99.5808 31.8292 99.5808 31.8292H93.7558C93.8874 33.038 94.6722 33.8179 95.8957 33.8179C96.7341 33.8179 97.4311 33.4036 97.7529 32.6383L99.3322 33.0526C98.7814 34.4224 97.514 35.3241 95.847 35.3241ZM93.7802 30.5277H97.8504C97.7041 29.4651 96.9632 28.7436 95.8275 28.7436C94.6966 28.7436 93.9557 29.4797 93.7802 30.5277Z" fill="white"/>
<path d="M101.649 27.4907L103.731 33.0378L105.841 27.4907H107.669L104.276 35.826C103.497 37.7563 102.58 38.3802 101.181 38.3802C100.889 38.3802 100.679 38.351 100.679 38.351V36.7863C100.679 36.7863 100.884 36.8009 101.123 36.8009C101.713 36.8009 102.244 36.6108 102.687 35.5043L102.863 35.0754L99.7822 27.4956H101.649V27.4907Z" fill="white"/>
<path d="M72.9544 2.86152V0.273193H62.9082V14.2531H72.9544V11.6696H65.7354V8.55974H72.3305V5.97629H65.7354V2.86152H72.9544Z" fill="white"/>
<path d="M124.973 0.278076V14.2531H134.029V11.6696H127.8V0.278076H124.973Z" fill="white"/>
<path d="M138.301 13.0487C138.705 13.502 139.266 13.8724 139.968 14.1357C140.674 14.4038 141.523 14.5402 142.454 14.5402C144.101 14.5402 145.471 14.1405 146.48 13.3509C147.489 12.5612 148.001 11.5278 148.001 10.28C148.001 9.51957 147.864 8.86152 147.591 8.31558C147.318 7.76964 146.962 7.35044 146.524 7.06772C146.085 6.78013 145.588 6.54616 145.042 6.40967C144.73 6.33168 141.888 5.63464 141.62 5.56639C141.167 5.44941 140.777 5.2593 140.494 5.02533C140.206 4.78648 140.06 4.47452 140.06 4.09431C140.06 3.63611 140.27 3.25103 140.689 2.95857C141.103 2.6661 141.674 2.51987 142.351 2.51987C143.092 2.51987 143.711 2.71972 144.145 3.11455C144.569 3.49963 144.803 4.01632 144.837 4.64025H147.601C147.557 3.33877 147.07 2.23228 146.158 1.35C145.242 0.462853 143.955 0.0144043 142.39 0.0144043C140.835 0.0144043 139.563 0.428732 138.652 1.25251C137.74 2.07142 137.277 3.1048 137.277 4.31366C137.277 5.04483 137.413 5.67851 137.686 6.20982C137.959 6.73626 138.32 7.14571 138.754 7.42356C139.193 7.70627 139.704 7.9305 140.241 8.07186C140.518 8.14497 143.375 8.84202 143.623 8.90539C144.072 9.02237 144.437 9.21248 144.715 9.4562C144.998 9.69992 145.139 10.0119 145.139 10.3921C145.139 10.9137 144.915 11.328 144.472 11.6156C144.033 11.9032 143.394 12.0445 142.61 12.0445C141.747 12.0445 141.055 11.8349 140.587 11.4206C140.128 11.016 139.87 10.4993 139.826 9.88515H137.038C137.067 10.475 137.179 11.0404 137.379 11.562C137.589 12.0884 137.896 12.5905 138.301 13.0487Z" fill="white"/>
<path d="M105.789 0.287598H102.962V8.6034C102.962 9.6319 102.704 10.4606 102.192 11.0552C101.68 11.6548 100.895 11.957 99.8619 11.957C98.8285 11.957 98.0437 11.6548 97.5319 11.0552C97.0201 10.4606 96.7618 9.6319 96.7618 8.6034V0.287598H93.9395V8.52053C93.9395 10.4654 94.5098 11.9765 95.6309 13.0099C96.7569 14.0433 98.1802 14.5648 99.8619 14.5648C101.544 14.5648 102.972 14.0433 104.093 13.0099C105.214 11.9765 105.784 10.4703 105.784 8.52053V0.287598H105.789Z" fill="white"/>
<path d="M88.3685 12.6492C89.8455 11.2795 90.5913 9.47104 90.5913 7.27754C90.5913 5.19128 89.904 3.43648 88.544 2.06676C87.1889 0.697045 85.4341 0 83.3332 0C81.2324 0 79.4776 0.697045 78.1225 2.06676C76.7674 3.43648 76.0752 5.19128 76.0752 7.27754C76.0752 9.36868 76.7625 11.1186 78.1225 12.4932C79.4824 13.8629 81.2324 14.5356 83.3332 14.5356C84.3081 14.5356 85.2489 14.3942 86.1263 14.0676L86.1507 14.0579L86.1653 14.0774L88.0517 16.7096H91.2542L88.349 12.6687L88.3685 12.6492ZM86.4188 10.6068C85.6242 11.4452 84.586 11.8498 83.3332 11.8498C82.0805 11.8498 81.0423 11.4452 80.2477 10.6068C79.4532 9.76838 79.0535 8.64726 79.0535 7.27754C79.0535 5.90782 79.4532 4.7867 80.2477 3.9483C81.0423 3.10989 82.0805 2.68094 83.3332 2.68094C84.586 2.68094 85.6242 3.10989 86.4188 3.9483C87.2133 4.7867 87.613 5.90782 87.613 7.27754C87.613 8.64726 87.2133 9.76838 86.4188 10.6068Z" fill="white"/>
<path d="M124.973 0.278076V14.2531H134.029V11.6696H127.8V0.278076H124.973Z" fill="white"/>
<path d="M138.301 13.0487C138.705 13.502 139.266 13.8724 139.968 14.1357C140.674 14.4038 141.523 14.5402 142.454 14.5402C144.101 14.5402 145.471 14.1405 146.48 13.3509C147.489 12.5612 148.001 11.5278 148.001 10.28C148.001 9.51957 147.864 8.86152 147.591 8.31558C147.318 7.76964 146.962 7.35044 146.524 7.06772C146.085 6.78013 145.588 6.54616 145.042 6.40967C144.73 6.33168 141.888 5.63464 141.62 5.56639C141.167 5.44941 140.777 5.2593 140.494 5.02533C140.206 4.78648 140.06 4.47452 140.06 4.09431C140.06 3.63611 140.27 3.25103 140.689 2.95857C141.103 2.6661 141.674 2.51987 142.351 2.51987C143.092 2.51987 143.711 2.71972 144.145 3.11455C144.569 3.49963 144.803 4.01632 144.837 4.64025H147.601C147.557 3.33877 147.07 2.23228 146.158 1.35C145.242 0.462853 143.955 0.0144043 142.39 0.0144043C140.835 0.0144043 139.563 0.428732 138.652 1.25251C137.74 2.07142 137.277 3.1048 137.277 4.31366C137.277 5.04483 137.413 5.67851 137.686 6.20982C137.959 6.73626 138.32 7.14571 138.754 7.42356C139.193 7.70627 139.704 7.9305 140.241 8.07186C140.518 8.14497 143.375 8.84202 143.623 8.90539C144.072 9.02237 144.437 9.21248 144.715 9.4562C144.998 9.69992 145.139 10.0119 145.139 10.3921C145.139 10.9137 144.915 11.328 144.472 11.6156C144.033 11.9032 143.394 12.0445 142.61 12.0445C141.747 12.0445 141.055 11.8349 140.587 11.4206C140.128 11.016 139.87 10.4993 139.826 9.88515H137.038C137.067 10.475 137.179 11.0404 137.379 11.562C137.589 12.0884 137.896 12.5905 138.301 13.0487Z" fill="white"/>
<path d="M105.789 0.287598H102.962V8.6034C102.962 9.6319 102.704 10.4606 102.192 11.0552C101.68 11.6548 100.895 11.957 99.8619 11.957C98.8285 11.957 98.0437 11.6548 97.5319 11.0552C97.0201 10.4606 96.7618 9.6319 96.7618 8.6034V0.287598H93.9395V8.52053C93.9395 10.4654 94.5098 11.9765 95.6309 13.0099C96.7569 14.0433 98.1802 14.5648 99.8619 14.5648C101.544 14.5648 102.972 14.0433 104.093 13.0099C105.214 11.9765 105.784 10.4703 105.784 8.52053V0.287598H105.789Z" fill="white"/>
<path d="M88.3685 12.6492C89.8455 11.2795 90.5913 9.47104 90.5913 7.27754C90.5913 5.19128 89.904 3.43648 88.544 2.06676C87.1889 0.697045 85.4341 0 83.3332 0C81.2324 0 79.4776 0.697045 78.1225 2.06676C76.7674 3.43648 76.0752 5.19128 76.0752 7.27754C76.0752 9.36868 76.7625 11.1186 78.1225 12.4932C79.4824 13.8629 81.2324 14.5356 83.3332 14.5356C84.3081 14.5356 85.2489 14.3942 86.1263 14.0676L86.1507 14.0579L86.1653 14.0774L88.0517 16.7096H91.2542L88.349 12.6687L88.3685 12.6492ZM86.4188 10.6068C85.6242 11.4452 84.586 11.8498 83.3332 11.8498C82.0805 11.8498 81.0423 11.4452 80.2477 10.6068C79.4532 9.76838 79.0535 8.64726 79.0535 7.27754C79.0535 5.90782 79.4532 4.7867 80.2477 3.9483C81.0423 3.10989 82.0805 2.68094 83.3332 2.68094C84.586 2.68094 85.6242 3.10989 86.4188 3.9483C87.2133 4.7867 87.613 5.90782 87.613 7.27754C87.613 8.64726 87.2133 9.76838 86.4188 10.6068Z" fill="white"/>
<path d="M116.585 0.273193H113.276L108.235 14.2531H111.17L112.028 11.8402H117.833L118.691 14.2531H121.625L116.585 0.273193ZM112.925 9.31528L114.928 3.67068L116.931 9.31528C116.936 9.31528 112.954 9.31041 112.925 9.31528Z" fill="white"/>
<path d="M48.9296 0.273193H0V14.2531H48.9296V0.273193Z" fill="#FDB900"/>
<path d="M48.9296 21.1648H0V35.1447H48.9296V21.1648Z" fill="#FDB900"/>
</svg>
